<?xml version="1.0" encoding="UTF-8"?>
<svg version="1.1" xmlns="http://www.w3.org/2000/svg" width="907" height="242">
<path d="M0 0 C10.34189865 8.63208234 17.93384267 20.31076954 19.17578125 33.92724609 C20.12459799 48.39331268 17.30041888 62.12258189 7.90234375 73.55078125 C5.97213198 75.73971629 4.01292279 77.8871803 2 80 C17.95836621 87.79544058 17.95836621 87.79544058 35 88 C38.40569591 85.85293084 40.80960782 83.89582897 42 80 C42.5586677 75.84007439 42.70792095 73.01131564 40.25 69.5 C37.89599371 67.63019987 37.89599371 67.63019987 34 68 C34.33 68.66 34.66 69.32 35 70 C35.44720497 75.25465839 35.44720497 75.25465839 33.875 77.875 C31.14747535 79.51151479 29.12026907 79.32502803 26 79 C23 77 23 77 22.1875 74.6875 C21.96058308 71.43502413 22.36665347 69.82123492 24 67 C29.38444212 63.05900621 34.55968332 63.22226841 41 64 C45.90331294 66.27653815 48.5537698 69.19814071 51 74 C52.62756104 80.10892772 52.12766115 84.39178001 49 90 C45.85133381 95.20740946 41.75439333 97.4523234 36 99 C23.78265827 100.64317921 13.3136574 96.81167319 2.12109375 92.51953125 C0.90550781 92.05933594 -0.31007813 91.59914063 -1.5625 91.125 C-2.63628906 90.69445312 -3.71007812 90.26390625 -4.81640625 89.8203125 C-10.64224953 88.31917497 -16.13850849 90.21618056 -21.875 91.5625 C-35.82395181 94.54317075 -49.74199043 92.74722387 -62 85 C-74.51471226 76.59945155 -82.61371468 64.82503172 -85.61328125 49.9609375 C-87.43634726 36.0025129 -84.97376175 22.70874818 -77 11 C-68.59621528 0.07982777 -57.42801389 -8.04798514 -43.6953125 -10.6796875 C-27.65681441 -12.58571191 -13.02822169 -10.14872293 0 0 Z M-49 -2 C-49.68578125 -1.57589844 -50.3715625 -1.15179688 -51.078125 -0.71484375 C-61.21663634 6.23119742 -67.54388707 17.01226265 -70.3125 28.875 C-72.91542365 44.71779491 -70.05143767 59.64669625 -61 73 C-58.91636629 74.83310089 -58.91636629 74.83310089 -57 76 C-56.29875 75.38125 -55.5975 74.7625 -54.875 74.125 C-48.97977185 69.76765745 -43.11292828 69.24018913 -36 70 C-30.60466336 71.12103719 -25.3088383 72.52942627 -20 74 C-18.85402344 74.30808594 -17.70804688 74.61617188 -16.52734375 74.93359375 C-14.01490341 75.61114218 -11.50602271 76.29916314 -9 77 C1.6444974 65.61286325 5.79968028 52.39136575 5.28515625 36.93359375 C4.2350162 22.44741519 -1.45259508 10.93008189 -12 1 C-22.71213517 -7.31651221 -37.1985115 -9.34162366 -49 -2 Z M-54 78 C-52.6761485 81.97155451 -51.18396599 82.27371406 -47.5 84.125 C-38.46038939 88.42041781 -31.61001611 88.65229178 -22 86 C-21.34 85.67 -20.68 85.34 -20 85 C-20 84.34 -20 83.68 -20 83 C-30.89443261 78.18984316 -42.0802455 74.0267485 -54 78 Z " fill="#21386A" transform="translate(142,64)"/>
<path d="M0 0 C5.94 0 11.88 0 18 0 C27.13758224 27.289451 36.15070371 54.61567691 45 82 C47.25249464 78.62125804 48.37461083 75.23070929 49.61376953 71.4074707 C49.99459686 70.25101547 49.99459686 70.25101547 50.38311768 69.07119751 C51.22068888 66.52412711 52.05176832 63.97498796 52.8828125 61.42578125 C53.46248203 59.65873867 54.04255532 57.8918285 54.62301636 56.12504578 C56.14936479 51.47554919 57.67021673 46.82427256 59.18994141 42.17260742 C60.7418095 37.42583595 62.29885478 32.68076368 63.85546875 27.93554688 C66.90872355 18.62535431 69.9556954 9.313123 73 0 C78.94 0 84.88 0 91 0 C91 33.99 91 67.98 91 103 C87.7 103 84.4 103 81 103 C80.67 73.63 80.34 44.26 80 14 C76.514375 24.60125 73.02875 35.2025 69.4375 46.125 C67.81026001 51.07137451 67.81026001 51.07137451 66.15014648 56.11767578 C61.02133633 71.72056418 55.93240946 87.3336011 51 103 C47.37 103 43.74 103 40 103 C37.77961342 96.21720204 35.5600254 89.43414338 33.34106445 82.65087891 C32.59191572 80.36109985 31.84257768 78.07138271 31.09301758 75.78173828 C24.68351406 56.20220016 18.34176216 36.6018103 12 17 C11.67 45.38 11.34 73.76 11 103 C7.37 103 3.74 103 0 103 C0 69.01 0 35.02 0 0 Z " fill="#21386A" transform="translate(648,53)"/>
<path d="M0 0 C11.06826148 10.53377803 16.44796076 23.99470563 17.0859375 39.1953125 C17.35000784 55.83464605 15.60046714 69.28580798 6.75 83.75 C6.06893932 85.07603868 5.39687937 86.40695521 4.75 87.75 C7.42223829 91.51092797 9.27535014 93.5012605 13.75 94.75 C16.07597511 95.1313074 18.40912158 95.47460254 20.75 95.75 C20.75 99.05 20.75 102.35 20.75 105.75 C11.87665231 105.36971367 4.36968033 103.62822892 -1.875 96.9375 C-2.32875 96.215625 -2.7825 95.49375 -3.25 94.75 C-5.91979765 95.22114076 -8.33590816 95.78272692 -10.875 96.75 C-21.19468887 99.80768559 -32.50539439 99.55396809 -42.125 94.4375 C-43.51719514 93.56863001 -44.89420988 92.67464886 -46.25 91.75 C-47.796875 90.698125 -47.796875 90.698125 -49.375 89.625 C-61.43571904 78.90436085 -64.26351398 62.53321464 -65.4375 47.3203125 C-65.92104193 31.30298614 -61.96428665 14.96729279 -51.25 2.75 C-37.37095651 -10.47885406 -15.19812147 -12.58369982 0 0 Z M-44.72265625 9.71484375 C-55.26591851 23.76353847 -56.14686262 42.24334605 -53.94091797 59.11376953 C-52.0483313 69.70790408 -47.67962102 78.79057458 -39.16015625 85.53125 C-33.19452161 89.3375445 -26.24380231 90.85367312 -19.25 89.75 C-15.80608931 88.6357936 -12.52736364 87.28262934 -9.25 85.75 C-10.07837045 81.47160318 -11.98276441 79.63732448 -15.25 76.75 C-17.97382956 75.06763469 -18.98884371 74.75 -22.25 74.75 C-22.25 71.45 -22.25 68.15 -22.25 64.75 C-13.37745188 67.05929335 -7.50374151 69.99595917 -1.25 76.75 C7.11627417 66.07578812 7.62594531 50.77615447 6.75 37.75 C5.29630936 26.154814 2.29923401 15.10493324 -6.25 6.75 C-18.80303641 -1.54356804 -33.99234803 -2.17686253 -44.72265625 9.71484375 Z " fill="#21386A" transform="translate(329.25,59.25)"/>
<path d="M0 0 C5.76363039 4.63596357 8.0144693 9.8076911 9 17 C9.10772774 18.93880838 9.17457365 20.88022186 9.20532227 22.82177734 C9.2352401 24.50284073 9.2352401 24.50284073 9.26576233 26.21786499 C9.28247482 27.41182892 9.29918732 28.60579285 9.31640625 29.8359375 C9.33718735 31.07042633 9.35796844 32.30491516 9.37937927 33.57681274 C9.44461836 37.50948671 9.50364052 41.44222589 9.5625 45.375 C9.60520612 48.04558857 9.64932464 50.71615149 9.69335938 53.38671875 C9.80027347 59.92441079 9.90208701 66.46216729 10 73 C6.7 73 3.4 73 0 73 C-0.495 69.535 -0.495 69.535 -1 66 C-1.69222656 66.48210937 -2.38445313 66.96421875 -3.09765625 67.4609375 C-12.29366826 73.39775685 -21.99092371 76.40665289 -33.0625 74.375 C-38.43941346 72.76799015 -42.39495862 70.36604224 -45.3125 65.5 C-48.42803982 59.03813964 -48.89092958 53.41256876 -46.8125 46.4375 C-44.14428968 39.22843635 -40.27213388 35.48464138 -33.41015625 32.296875 C-28.81540562 30.54950134 -24.15612724 29.12311065 -19.4375 27.75 C-18.55126953 27.49154297 -17.66503906 27.23308594 -16.75195312 26.96679688 C-11.15657136 25.40906253 -5.78789264 24.49358678 0 24 C-0.39809111 21.91303753 -0.8192428 19.8304656 -1.25 17.75 C-1.59804688 16.00976562 -1.59804688 16.00976562 -1.953125 14.234375 C-3.08675495 10.73196604 -4.13804238 9.25944022 -7 7 C-13.04736429 4.9842119 -20.42440908 4.87922228 -26.3125 7.5 C-30.76873439 10.07845009 -33.87670353 13.97875579 -37 18 C-39.96175123 17.38722388 -41.38058783 16.74627478 -44 15 C-42.72851571 8.88349138 -39.313498 4.59276665 -34.125 1.1875 C-24.15926751 -4.42283829 -10.33991288 -5.51168064 0 0 Z M-33 43 C-37.07687645 47.27101342 -38.30498739 50.01837024 -38.21875 55.96875 C-37.80625231 59.79908567 -35.90717202 62.05922902 -33.3125 64.75 C-28.26180671 67.48010448 -23.53712585 67.37856036 -18.125 66 C-11.60592365 63.83033837 -5.84443368 59.84443368 -1 55 C-0.72212332 52.57402049 -0.72212332 52.57402049 -0.8046875 49.7734375 C-0.81435547 48.2265625 -0.81435547 48.2265625 -0.82421875 46.6484375 C-0.84097656 45.56820312 -0.85773437 44.48796875 -0.875 43.375 C-0.88402344 42.28703125 -0.89304687 41.1990625 -0.90234375 40.078125 C-0.92596591 37.38519848 -0.95890444 34.69270745 -1 32 C-11.72466953 32 -24.30018055 36.88922109 -33 43 Z " fill="#21386A" transform="translate(792,83)"/>
<path d="M0 0 C8.13255584 6.58805364 11.00567562 15.02837808 13 25 C13 28.63 13 32.26 13 36 C-3.83 36 -20.66 36 -38 36 C-35.48890065 50.61412112 -35.48890065 50.61412112 -27.625 61.375 C-21.22790374 65.33510721 -15.17848465 65.55398537 -8 64 C-1.3653374 61.3011542 1.93910001 56.77659937 6 51 C11.75 52.875 11.75 52.875 14 54 C12.04662521 60.9453326 5.88144471 67.07903686 0 71 C-9.53104378 75.31166266 -20.56840083 74.5714876 -30.2578125 71.21875 C-37.80632294 67.88936897 -42.13798636 61.95083358 -45.1875 54.44140625 C-49.71103265 40.84906055 -49.45785178 25.30444244 -43.74609375 12.1015625 C-39.57622212 4.53443851 -33.52973632 -0.82271827 -25.25390625 -3.52734375 C-16.53702064 -5.35532149 -7.77811798 -4.42074294 0 0 Z M-31.6875 10.6875 C-36.20394411 16.12322034 -38 20.82131892 -38 28 C-24.47 28 -10.94 28 3 28 C1.86649619 17.79846574 0.40832168 12.44288209 -7.31640625 6.12890625 C-15.54342693 0.6124121 -25.52262617 4.15016504 -31.6875 10.6875 Z " fill="#21386A" transform="translate(529,84)"/>
<path d="M0 0 C1.25335648 -0.00990463 2.50671295 -0.01980927 3.79804993 -0.03001404 C5.17929176 -0.02577631 6.56053263 -0.02121848 7.94177246 -0.01637268 C9.40236432 -0.02207746 10.86295172 -0.02904214 12.3235321 -0.03717041 C16.2842536 -0.0551038 20.24475357 -0.05393332 24.20550346 -0.04822803 C27.51327118 -0.04513687 30.8209963 -0.05122771 34.12875795 -0.05726677 C41.93186266 -0.07131055 49.73485789 -0.06975154 57.53796387 -0.05836487 C65.58661389 -0.0468794 73.63493087 -0.06096671 81.68353701 -0.08776134 C88.59663378 -0.10991359 95.50962597 -0.11655694 102.42275572 -0.11068493 C106.55049841 -0.10731351 110.67802753 -0.10974272 114.80574036 -0.12693596 C118.68662146 -0.14239593 122.56700873 -0.13846058 126.44787025 -0.11963081 C127.87127398 -0.11594246 129.29471423 -0.11906067 130.71808434 -0.1295166 C132.66252334 -0.14270881 134.60708977 -0.12878181 136.55151367 -0.11352539 C138.18302494 -0.11321146 138.18302494 -0.11321146 139.84749603 -0.1128912 C143.48695228 0.50925529 145.1681499 1.81994487 147.77575684 4.38768005 C148.46325684 6.82518005 148.46325684 6.82518005 147.77575684 9.38768005 C144.03251422 13.13092267 141.12072829 15.30835195 135.81401062 15.4342041 C135.12873795 15.39701767 134.44346527 15.35983124 133.73742676 15.32151794 C132.95466873 15.28126999 132.17191071 15.24102203 131.36543274 15.19955444 C130.52501938 15.14948746 129.68460602 15.09942047 128.81872559 15.0478363 C127.93597458 14.99934036 127.05322357 14.95084442 126.14372253 14.90087891 C115.57700428 14.29910031 105.02580461 13.46555621 94.47668457 12.61448669 C72.0551375 10.81648297 50.50510886 11.93447988 28.09484863 13.75413513 C24.4590796 14.04695355 20.82259261 14.32908686 17.18591309 14.6103363 C16.087798 14.70299271 14.98968292 14.79564911 13.85829163 14.89111328 C6.06577863 15.48855692 -1.59774988 16.01334946 -8.84924316 12.76268005 C-11.22424316 10.38768005 -11.22424316 10.38768005 -11.91174316 6.82518005 C-11.22424316 3.38768005 -11.22424316 3.38768005 -9.07028961 1.69706631 C-5.79953041 0.19228161 -3.59120775 0.00802286 0 0 Z " fill="#21386A" transform="translate(41.2242431640625,165.61231994628906)"/>
<path d="M0 0 C2.8125 2.3125 2.8125 2.3125 5 5 C5.42925781 5.49113281 5.85851562 5.98226562 6.30078125 6.48828125 C13.20412767 15.02073597 13.18001662 25.34021607 14 36 C-3.16 36 -20.32 36 -38 36 C-35.16059041 51.55392586 -35.16059041 51.55392586 -25.4375 62.4375 C-19.25363084 65.24834962 -13.65474554 66.01189981 -7 64 C-1.00851592 61.57543056 2.52226338 56.21660493 6 51 C9.37462715 51.54723683 11.08235 52.0549 14 54 C12.71273831 60.58258816 8.14570801 65.46509297 2.875 69.375 C-5.35784177 74.4445519 -15.69015975 75.06429644 -25 73 C-33.83278857 70.07323648 -40.14169156 64.57935348 -44.3828125 56.30078125 C-49.09929879 43.685005 -49.2535782 26.71701791 -44.125 14.26953125 C-40.4545914 6.86499168 -35.0053323 0.51045021 -27.3125 -2.9375 C-18.1410041 -5.82048496 -8.28962432 -4.75914642 0 0 Z M-32.25 11.125 C-35.29888839 16.13388807 -38 22.07449969 -38 28 C-24.14 28 -10.28 28 4 28 C1.85982209 17.29911044 0.39872258 11.31541755 -8.6875 5.1875 C-18.29234714 1.74425291 -25.10372197 4.37573742 -32.25 11.125 Z " fill="#21386A" transform="translate(462,84)"/>
<path d="M0 0 C3.3 0 6.6 0 10 0 C12.86961301 7.0177112 15.46795174 14.0747663 17.890625 21.2578125 C18.24010193 22.28687714 18.58957886 23.31594177 18.949646 24.37619019 C20.05230027 27.62493993 21.15121184 30.87494089 22.25 34.125 C23.00235587 36.34383421 23.75495773 38.56258502 24.5078125 40.78125 C26.34138464 46.18653983 28.17189552 51.59285868 30 57 C34.75938019 44.59957503 39.11140266 32.07838656 43.375 19.5 C44.02190761 17.59757877 44.66904173 15.69523455 45.31640625 13.79296875 C46.88020773 9.19619298 48.44097203 4.59839682 50 0 C53.3 0 56.6 0 60 0 C59.38948949 6.63695366 57.26222606 12.57125077 55.0625 18.8359375 C54.46405273 20.5633165 54.46405273 20.5633165 53.85351562 22.32559204 C52.57492988 26.01081592 51.28744372 29.69286265 50 33.375 C49.16481483 35.78105924 48.3301745 38.18730768 47.49609375 40.59375 C45.42583571 46.55865819 43.33445369 52.51591423 41.23632812 58.47106934 C40.00282319 61.99194157 38.7893232 65.51925208 37.578125 69.04785156 C36.80259029 71.2742652 36.02657012 73.5005098 35.25 75.7265625 C34.9096875 76.73294769 34.569375 77.73933289 34.21875 78.7762146 C31.14448242 87.50138874 27.4176618 95.51058037 19 100 C15.38132441 101.2062252 12.07493749 101.10816918 8.3125 101.0625 C7.61060547 101.05798828 6.90871094 101.05347656 6.18554688 101.04882812 C4.45699462 101.03706927 2.72848635 101.01913454 1 101 C1 98.03 1 95.06 1 92 C1.79664063 92.05800781 2.59328125 92.11601562 3.4140625 92.17578125 C10.19782014 92.48086229 10.19782014 92.48086229 16.4375 90.125 C19.91685522 86.45925075 22.67905587 81.86317739 24 77 C23.63671986 69.11298379 21.29225347 62.32424057 18.6328125 54.93359375 C17.9797261 53.08339378 17.9797261 53.08339378 17.31344604 51.19581604 C16.16251762 47.93588365 14.99998042 44.68021146 13.83496094 41.42529297 C12.65728263 38.1279557 11.49144938 34.82643721 10.32421875 31.52539062 C5.8961588 18.90478585 5.8961588 18.90478585 1.21044922 6.37915039 C0 3 0 3 0 0 Z " fill="#21386A" transform="translate(847,81)"/>
<path d="M0 0 C3.3 0 6.6 0 10 0 C10.00586624 0.69855606 10.01173248 1.39711212 10.01777649 2.11683655 C10.07584704 8.72242042 10.14800501 15.32768581 10.23571491 21.93294621 C10.28031071 25.32823849 10.31958974 28.72341378 10.34643555 32.11889648 C10.37758682 36.02873986 10.43237176 39.93808551 10.48828125 43.84765625 C10.49467117 45.05833267 10.5010611 46.26900909 10.50764465 47.51637268 C10.62970844 54.55039532 10.83252743 60.34522396 15.625 65.875 C20.49413403 68.18143191 25.75254542 68.68153809 30.9375 67.125 C35.71424058 65.09704776 39.2198543 61.43367083 42.8984375 57.86328125 C45 56 45 56 47 56 C47 37.52 47 19.04 47 0 C50.3 0 53.6 0 57 0 C57 24.75 57 49.5 57 75 C53.7 75 50.4 75 47 75 C46.505 70.545 46.505 70.545 46 66 C45.50371094 66.47050781 45.00742187 66.94101563 44.49609375 67.42578125 C37.33739081 73.98679363 30.76269951 76.97085761 21 77 C14.68663755 76.56654526 10.00018393 75.16032536 5.40234375 70.703125 C-1.15184398 62.74316442 -0.14042104 51.9539621 -0.09765625 42.28515625 C-0.09553383 40.46883949 -0.09553383 40.46883949 -0.09336853 38.61582947 C-0.08779026 34.76469406 -0.0752417 30.91361771 -0.0625 27.0625 C-0.05748219 24.4446623 -0.05291978 21.82682369 -0.04882812 19.20898438 C-0.03782793 12.80596698 -0.02057822 6.40299349 0 0 Z " fill="#21386A" transform="translate(352,81)"/>
<path d="M0 0 C5.44404847 3.45113787 8.00400407 8.03615541 9.75 14.109375 C9.99050903 17.10873413 9.99050903 17.10873413 9.97705078 20.29833984 C9.97689972 21.49913177 9.97674866 22.69992371 9.97659302 23.93710327 C9.96627045 25.21856232 9.95594788 26.50002136 9.9453125 27.8203125 C9.9415779 29.15694974 9.93873304 30.49358974 9.93673706 31.83023071 C9.92913577 35.33192632 9.90951788 38.8334535 9.8873291 42.33508301 C9.86679474 45.91477175 9.85771918 49.49448796 9.84765625 53.07421875 C9.82626829 60.08600627 9.79217516 67.09768253 9.75 74.109375 C6.78 74.109375 3.81 74.109375 0.75 74.109375 C0.74413376 73.45728561 0.73826752 72.80519623 0.73222351 72.13334656 C0.66793687 65.30273307 0.58342876 58.47257546 0.48754883 51.64233398 C0.45444006 49.09845009 0.42636512 46.55449521 0.40356445 44.01049805 C0.36975968 40.33872428 0.31743016 36.66759283 0.26171875 32.99609375 C0.25532883 31.87168381 0.2489389 30.74727386 0.24235535 29.58879089 C0.11320956 22.54050622 -0.47747816 15.67336029 -3.25 9.109375 C-5.8322985 7.16435035 -5.8322985 7.16435035 -9.25 7.109375 C-9.94609375 7.03332031 -10.6421875 6.95726563 -11.359375 6.87890625 C-19.71353638 6.34596837 -25.05105979 9.91120805 -31.42919922 14.97631836 C-35.30940899 18.53110527 -36.94833558 20.8253746 -37.47705078 26.08813477 C-37.51694283 28.32535297 -37.50393472 30.56397547 -37.4453125 32.80078125 C-37.45335907 33.98663315 -37.46140564 35.17248505 -37.46969604 36.39427185 C-37.48461084 40.15517213 -37.43087088 43.9114273 -37.375 47.671875 C-37.37305688 50.23242246 -37.375614 52.79297754 -37.3828125 55.35351562 C-37.39061636 61.60649822 -37.34216581 67.85710921 -37.25 74.109375 C-40.22 74.109375 -43.19 74.109375 -46.25 74.109375 C-46.25 49.359375 -46.25 24.609375 -46.25 -0.890625 C-43.28 -0.890625 -40.31 -0.890625 -37.25 -0.890625 C-36.92 2.409375 -36.59 5.709375 -36.25 9.109375 C-35.13625 8.036875 -34.0225 6.964375 -32.875 5.859375 C-23.78148835 -2.0057149 -11.37403028 -5.02353004 0 0 Z " fill="#21386A" transform="translate(595.25,81.890625)"/>
<path d="M0 0 C-1.44858112 8.77753189 -3.47158062 17.37623351 -5.625 26.00390625 C-5.97617398 27.41826442 -6.32724633 28.83264782 -6.67822266 30.24705505 C-7.40864655 33.18656934 -8.1419146 36.12535712 -8.87695312 39.0637207 C-9.81893738 42.83135014 -10.75110823 46.60133517 -11.68093872 50.37197971 C-12.40017032 53.28217951 -13.12577333 56.19076235 -13.85321045 59.09892082 C-14.19995706 60.48944739 -14.54441459 61.88054686 -14.88653564 63.2722187 C-15.36298657 65.20730678 -15.84922457 67.13997726 -16.3359375 69.07250977 C-16.60970215 70.17184341 -16.8834668 71.27117706 -17.16552734 72.40382385 C-18 75 -18 75 -20 77 C-20.35191406 76.45730469 -20.70382813 75.91460937 -21.06640625 75.35546875 C-24.468615 70.42537513 -27.00135247 67.59963934 -33 66 C-39.04490704 65.32727585 -43.80484145 65.53656097 -49 69 C-50.35197858 70.31442362 -51.69026002 71.6434836 -53 73 C-53.66 73 -54.32 73 -55 73 C-54.57686942 64.53738833 -52.61587938 54.76227865 -46.0625 48.8125 C-42.74976968 46.8519045 -40.84800925 46 -37 46 C-32.25904127 47.58031958 -28.74318416 49.71053513 -25 53 C-25.15984375 52.29230469 -25.3196875 51.58460937 -25.484375 50.85546875 C-27.85421693 37.7315714 -24.4286796 25.88387942 -17 15 C-4.7922815 0 -4.7922815 0 0 0 Z " fill="#21386A" transform="translate(216,57)"/>
<path d="M0 0 C11.73445978 5.42588959 19.04965401 17.04497691 24.08984375 28.4921875 C26.90994707 36.26260093 26.73416236 44.97949907 25 53 C25.74443359 52.36771484 25.74443359 52.36771484 26.50390625 51.72265625 C30.90417241 48.17405451 34.11861362 45.89108544 40 46 C44.73353263 47.67065858 47.35069748 49.76111596 50 54 C52.75627047 60.24820032 54.48638214 66.1945634 55 73 C54.34 73 53.68 73 53 73 C52.236875 72.21625 51.47375 71.4325 50.6875 70.625 C46.66131599 66.69244818 43.12532899 65.71117161 37.5625 65.6875 C31.75277696 65.80463151 28.18081054 67.12207981 23.75 70.9375 C22.09155625 72.89209442 21.00592851 74.65283348 20 77 C17.29128354 74.29128354 17.04686047 71.92875938 16.12060547 68.21118164 C15.85682098 67.16458626 15.85682098 67.16458626 15.58770752 66.09684753 C15.007285 63.78628589 14.43707936 61.47333582 13.8671875 59.16015625 C13.4669962 57.55581534 13.06628326 55.95160446 12.66506958 54.34751892 C11.8252343 50.98348218 10.99016068 47.61831134 10.15869141 44.25219727 C9.09209392 39.93485715 8.01622706 35.61989633 6.93710136 31.30567265 C6.10899855 27.99244597 5.2845774 24.67831246 4.46139908 21.36385918 C4.06592646 19.77241377 3.66959493 18.18118154 3.27239609 16.59016609 C2.71824004 14.36704478 2.16874696 12.14282369 1.62060547 9.91821289 C1.30686981 8.65183487 0.99313416 7.38545685 0.66989136 6.08070374 C-0 3 -0 3 0 0 Z " fill="#21386A" transform="translate(0,57)"/>
<path d="M0 0 C0.66 0 1.32 0 2 0 C10.14893617 14.76595745 10.14893617 14.76595745 10 24 C11.216875 23.773125 12.43375 23.54625 13.6875 23.3125 C16.85961103 22.90826638 17.8577447 22.93505736 20.875 24.3125 C24.92739115 27.53057532 24.92739115 27.53057532 25.3359375 30.171875 C25.42350937 35.95161812 25.03589102 39.50286429 21 44 C20.01 44.33 19.02 44.66 18 45 C17.34 42.69 16.68 40.38 16 38 C13.6739143 37.61936779 11.33944736 37.28730055 9 37 C7.69119034 38.08968674 7.69119034 38.08968674 7.8125 40.75 C7.85019001 44.39227637 7.85019001 44.39227637 10 49 C4.06 49 -1.88 49 -8 49 C-7.18619792 46.75390625 -6.37239583 44.5078125 -5.55859375 42.26171875 C-4.75084375 39.8566826 -4.75084375 39.8566826 -6 37 C-8.87413125 36.66602213 -8.87413125 36.66602213 -12 37 C-14.32335498 39.32335498 -15.62299976 42.03415333 -17 45 C-21.22822565 40.98860644 -22.8359717 39.03395095 -23.3125 33.125 C-23.25563967 30.03748399 -22.9477566 28.9017824 -21.4375 26.0625 C-18.25865126 23.37270491 -16.12437003 23.14471474 -12 23 C-9.0625 23.4375 -9.0625 23.4375 -7 24 C-7.144375 22.824375 -7.28875 21.64875 -7.4375 20.4375 C-7.52087946 13.00481681 -3.32479605 6.43755154 0 0 Z " fill="#21386A" transform="translate(108,0)"/>
<path d="M0 0 C0 2.97 0 5.94 0 9 C-1.32 9.226875 -2.64 9.45375 -4 9.6875 C-11.4274166 11.36917923 -16.67115154 14.78855905 -20.9921875 21.05859375 C-24.20600046 27.24954353 -24.33501739 33.04401613 -24.4140625 39.8671875 C-24.43342865 40.90191193 -24.4527948 41.93663635 -24.4727478 43.00271606 C-24.53231842 46.29339467 -24.57883905 49.58410868 -24.625 52.875 C-24.66320048 55.11199405 -24.70225341 57.34897372 -24.7421875 59.5859375 C-24.83800156 65.05717425 -24.92211585 70.52847983 -25 76 C-28.3 76 -31.6 76 -35 76 C-35 51.25 -35 26.5 -35 1 C-31.7 1 -28.4 1 -25 1 C-24.67 4.3 -24.34 7.6 -24 11 C-23.38125 10.113125 -22.7625 9.22625 -22.125 8.3125 C-16.28310795 1.36493912 -8.75564974 -0.70610079 0 0 Z " fill="#21386A" transform="translate(843,80)"/>
<path d="M0 0 C2.97 0 5.94 0 9 0 C9.01981934 0.98395752 9.03963867 1.96791504 9.06005859 2.98168945 C9.13613987 6.63282839 9.224853 10.28357009 9.31738281 13.93432617 C9.35566221 15.51432451 9.39051697 17.09440969 9.421875 18.67456055 C9.46754876 20.94611645 9.52553784 23.21707509 9.5859375 25.48828125 C9.59748871 26.19463211 9.60903992 26.90098297 9.62094116 27.6287384 C9.73071048 31.27741393 9.92142364 32.88213546 12 36 C14.5 36.41666667 14.5 36.41666667 17 36 C19.86768546 33.13231454 19.35348145 30.21347695 19.4140625 26.3671875 C19.43342865 25.61535187 19.4527948 24.86351624 19.4727478 24.08889771 C19.53259147 21.68438101 19.57894726 19.27981656 19.625 16.875 C19.66317546 15.24607272 19.70222693 13.61716572 19.7421875 11.98828125 C19.83829666 7.99235194 19.92230941 3.99632813 20 0 C22.97 0 25.94 0 29 0 C29.09906509 5.32017615 29.17156072 10.63981247 29.21972656 15.96069336 C29.23981053 17.7697078 29.26708341 19.57865757 29.30175781 21.38745117 C29.35041892 23.99153621 29.37300051 26.59476115 29.390625 29.19921875 C29.41127014 30.00461594 29.43191528 30.81001312 29.45318604 31.63981628 C29.45477175 35.63087845 29.30541971 37.52483757 27.09130859 40.96948242 C23.11518333 44.83002805 20.13514078 45.31077924 14.625 45.375 C9.03102999 45.28082542 5.98070668 44.98070668 2 41 C-0.31904044 36.65442422 -0.26045807 32.44347651 -0.1953125 27.63671875 C-0.1924826 26.84473587 -0.18965271 26.05275299 -0.18673706 25.23677063 C-0.17558863 22.72019001 -0.15049422 20.20397211 -0.125 17.6875 C-0.11496329 15.97591662 -0.10583864 14.26432763 -0.09765625 12.55273438 C-0.07566681 8.36835094 -0.04117408 4.18423686 0 0 Z " fill="#21386A" transform="translate(268,186)"/>
<path d="M0 0 C3.65692086 1.55613654 6.16533224 3.43259046 8 7 C7.77962372 10.67293796 7.63033454 12.36966546 5 15 C-1.05240175 15.55021834 -1.05240175 15.55021834 -3.9375 13.875 C-5.48138276 11.15050101 -5.3267107 9.07108055 -5 6 C-4.34 5.34 -3.68 4.68 -3 4 C-7.30926238 4.37112452 -7.30926238 4.37112452 -10.875 6.625 C-12.47410954 10.00089791 -12.44659103 12.29967436 -12 16 C-9.74794145 20.33729795 -7.5613976 23.13397371 -3 25 C3.30630885 25.44802625 7.85887809 24.31269716 13.6875 22 C23.07061969 18.33587938 23.07061969 18.33587938 27 19 C29.01953125 20.3125 29.01953125 20.3125 30.8125 22 C31.71935547 22.8353125 31.71935547 22.8353125 32.64453125 23.6875 C33.09183594 24.120625 33.53914063 24.55375 34 25 C27.80243067 32.06356175 13.30349466 34.75065815 4.26953125 35.59375 C-2.6340051 35.90808696 -9.5683653 35.66883854 -15 31 C-19.44239645 26.65566969 -21.87670189 22.43559998 -22.16796875 16.16796875 C-21.78224022 11.18937963 -19.76824798 7.88643997 -16.5625 4.1875 C-11.28759343 -0.31546902 -6.78268572 -0.71570547 0 0 Z " fill="#21386A" transform="translate(44,127)"/>
<path d="M0 0 C2.64 0 5.28 0 8 0 C8 14.85 8 29.7 8 45 C5.36 45 2.72 45 0 45 C0 44.34 0 43.68 0 43 C-0.99 43.66 -1.98 44.32 -3 45 C-5.15625 45.30078125 -5.15625 45.30078125 -7.5 45.3125 C-8.66015625 45.33763672 -8.66015625 45.33763672 -9.84375 45.36328125 C-12.52867986 44.91092894 -13.35878405 44.13658295 -15 42 C-16.57322611 37.28032168 -16.184477 32.50510529 -16.1875 27.5625 C-16.19974609 26.51255859 -16.21199219 25.46261719 -16.22460938 24.38085938 C-16.22654297 23.36958984 -16.22847656 22.35832031 -16.23046875 21.31640625 C-16.23457764 20.39287354 -16.23868652 19.46934082 -16.24291992 18.51782227 C-15.98604769 15.8553868 -15.40750187 14.25723112 -14 12 C-11.24335194 9.8559404 -9.9246195 10.00649832 -6.375 10.3125 C-3 11 -3 11 -1 12 C-0.67 8.04 -0.34 4.08 0 0 Z M-6 17 C-7.74893812 20.79052724 -8.29655519 23.83309085 -8.3125 28 C-8.32925781 29.010625 -8.34601562 30.02125 -8.36328125 31.0625 C-7.95275089 34.38205734 -6.89579443 36.27885971 -5 39 C-2.36807526 38.11601403 -2.36807526 38.11601403 0 36 C0.4345774 32.9336462 0.56636126 30.48216302 0.4375 27.4375 C0.43169922 26.65697266 0.42589844 25.87644531 0.41992188 25.07226562 C0.46932243 20.5598623 0.46932243 20.5598623 -2 17 C-3.32 17 -4.64 17 -6 17 Z " fill="#21386A" transform="translate(666,186)"/>
<path d="M0 0 C2.83765877 1.80578285 4.08036972 2.86830576 5.75 5.75 C6.1456287 10.11774081 5.88187137 14.35428782 5.75 18.75 C0.47 18.75 -4.81 18.75 -10.25 18.75 C-9.59 21.06 -8.93 23.37 -8.25 25.75 C-6.93 25.75 -5.61 25.75 -4.25 25.75 C-3.59 24.76 -2.93 23.77 -2.25 22.75 C-0.3046875 22.45703125 -0.3046875 22.45703125 1.875 22.5625 C3.15375 22.624375 4.4325 22.68625 5.75 22.75 C5.52871438 26.58561748 5.2568672 29.06835101 2.9375 32.1875 C-2.03920272 34.62706016 -6.81947015 34.61594935 -12.25 33.75 C-15.03740684 32.37725452 -16.16910445 31.16833807 -18.25 28.75 C-19.62386474 24.62840578 -19.51361748 20.75545595 -19.5625 16.4375 C-19.59150391 15.59509766 -19.62050781 14.75269531 -19.65039062 13.88476562 C-19.70682795 8.33220089 -19.0011753 5.1286697 -15.25 0.75 C-10.33640798 -2.17159525 -5.24724654 -2.01817175 0 0 Z M-7.25 5.75 C-8.24 6.41 -9.23 7.07 -10.25 7.75 C-10.25 9.07 -10.25 10.39 -10.25 11.75 C-7.61 11.75 -4.97 11.75 -2.25 11.75 C-3.03130071 9.25447516 -3.03130071 9.25447516 -4.25 6.75 C-5.24 6.42 -6.23 6.09 -7.25 5.75 Z " fill="#21386A" transform="translate(385.25,197.25)"/>
<path d="M0 0 C3.36946032 2.42914581 4.52288568 5.06445823 5.6875 8.9375 C5.9671402 11.72567731 6.10997935 14.22773325 6.0625 17 C6.07410156 17.68126953 6.08570313 18.36253906 6.09765625 19.06445312 C6.06529656 24.67885971 4.83850571 28.74948774 0.87109375 32.78515625 C-3.52529102 35.10525197 -8.49746863 34.5171481 -13.3125 33.9375 C-17.07272468 32.05738766 -17.95601019 30.75233385 -19.625 26.9375 C-21.41188696 18.93087188 -21.5315926 9.1975235 -17.3125 1.9375 C-11.96528135 -2.16617943 -6.1728362 -1.97996633 0 0 Z M-9.3125 6.9375 C-11.72372368 8.90285717 -11.72372368 8.90285717 -11.5078125 12.6328125 C-11.494509 14.10950108 -11.47064835 15.58612358 -11.4375 17.0625 C-11.42847656 17.81660156 -11.41945313 18.57070312 -11.41015625 19.34765625 C-11.3865687 21.21107254 -11.35069719 23.07432593 -11.3125 24.9375 C-8.98395537 26.13588209 -8.98395537 26.13588209 -6.3125 26.9375 C-5.3225 26.2775 -4.3325 25.6175 -3.3125 24.9375 C-3.03636432 22.18208159 -2.93992375 19.68658898 -3 16.9375 C-2.99677734 16.20015625 -2.99355469 15.4628125 -2.99023438 14.703125 C-2.89331038 10.35273711 -2.89331038 10.35273711 -5.3125 6.9375 C-6.6325 6.9375 -7.9525 6.9375 -9.3125 6.9375 Z " fill="#21386A" transform="translate(613.3125,197.0625)"/>
<path d="M0 0 C2.48579857 2.38504718 2.97374318 3.75267769 3.34057617 7.20800781 C3.32486572 8.44389648 3.30915527 9.67978516 3.29296875 10.953125 C3.28872391 11.61334656 3.28447906 12.27356812 3.28010559 12.95379639 C3.26337435 15.05295391 3.22573551 17.15113496 3.1875 19.25 C3.17244584 20.67706942 3.15875871 22.10415396 3.14648438 23.53125 C3.11349001 27.02114817 3.06174743 30.5104787 3 34 C0.03 34 -2.94 34 -6 34 C-6.33 25.09 -6.66 16.18 -7 7 C-8.32 7.33 -9.64 7.66 -11 8 C-11.33 16.58 -11.66 25.16 -12 34 C-14.97 34 -17.94 34 -21 34 C-21 22.78 -21 11.56 -21 0 C-18.36 0 -15.72 0 -13 0 C-12.67 0.66 -12.34 1.32 -12 2 C-11.319375 1.484375 -10.63875 0.96875 -9.9375 0.4375 C-6.10852228 -1.43625505 -4.06665724 -1.12962701 0 0 Z " fill="#21386A" transform="translate(727,197)"/>
<path d="M0 0 C3.590195 1.89482514 4.95942219 3.31576656 6.25 7.1875 C6.52775109 10.45346968 6.5273696 13.72350475 6.5625 17 C6.59150391 17.89009766 6.62050781 18.78019531 6.65039062 19.69726562 C6.70631628 25.50062821 6.16779739 28.80380238 2.25 33.1875 C-3.23383512 35.01544504 -9.44496921 35.1283289 -14.8125 32.9375 C-17.42220801 30.58034438 -18.58861782 28.48644723 -19.0246582 24.97680664 C-19.05294362 22.40071876 -19.07174718 19.82626507 -19.0625 17.25 C-19.07861328 16.35603516 -19.09472656 15.46207031 -19.11132812 14.54101562 C-19.11497448 9.62937667 -19.02859595 6.12491547 -15.75 2.1875 C-10.56728874 -1.22837787 -5.94506481 -1.75649642 0 0 Z M-9.75 8.1875 C-9.82325168 11.05017567 -9.84238205 13.888219 -9.8125 16.75 C-9.80798828 17.55630859 -9.80347656 18.36261719 -9.79882812 19.19335938 C-9.78700518 21.19143756 -9.76906914 23.18947783 -9.75 25.1875 C-7.275 26.1775 -7.275 26.1775 -4.75 27.1875 C-1.55010599 23.75120221 -1.36919902 21.24319736 -1.4375 16.625 C-1.44136719 15.48933594 -1.44523438 14.35367188 -1.44921875 13.18359375 C-1.53164457 10.00715216 -1.53164457 10.00715216 -3.75 7.1875 C-7.03912144 6.6960887 -7.03912144 6.6960887 -9.75 8.1875 Z " fill="#21386A" transform="translate(695.75,196.8125)"/>
<path d="M0 0 C2.97 0 5.94 0 9 0 C10.32 5.28 11.64 10.56 13 16 C14.27512613 11.10949636 14.27512613 11.10949636 15.54272461 6.21704102 C16.88888889 1.11111111 16.88888889 1.11111111 18 0 C20.67058851 -0.14115161 23.32432238 -0.04247107 26 0 C25.40322395 7.13418644 23.58868364 13.83446841 21.67138672 20.71899414 C21.12403153 22.69098918 20.59087746 24.66646872 20.05859375 26.64257812 C19.71183594 27.89876953 19.36507813 29.15496094 19.0078125 30.44921875 C18.69473145 31.58705811 18.38165039 32.72489746 18.05908203 33.8972168 C16.46737277 38.56043325 14.52859868 42.73570066 10 45 C6.98255102 45.240143 4.01970898 45.17421398 1 45 C1 42.69 1 40.38 1 38 C3.31 37.01 5.62 36.02 8 35 C7.39229534 27.92152464 5.51077375 21.46566823 3.4375 14.6875 C2.78672046 12.54667729 2.13941597 10.4047942 1.49609375 8.26171875 C1.06574829 6.85345825 1.06574829 6.85345825 0.62670898 5.41674805 C0 3 0 3 0 0 Z " fill="#21386A" transform="translate(468,197)"/>
<path d="M0 0 C3.36946032 2.42914581 4.52288568 5.06445823 5.6875 8.9375 C5.9671402 11.72567731 6.10997935 14.22773325 6.0625 17 C6.07410156 17.68126953 6.08570313 18.36253906 6.09765625 19.06445312 C6.06529656 24.67885971 4.83850571 28.74948774 0.87109375 32.78515625 C-3.5113071 35.09787226 -8.51249239 34.54733703 -13.3125 33.9375 C-16.38615786 32.12946596 -17.74269732 31.07710536 -19.3125 27.9375 C-19.58002525 24.33928538 -19.54408496 20.7320459 -19.5625 17.125 C-19.583125 16.12662109 -19.60375 15.12824219 -19.625 14.09960938 C-19.67434051 4.84209549 -19.67434051 4.84209549 -16.3125 0.9375 C-11.17628669 -2.14422799 -5.49972011 -1.76406117 0 0 Z M-9.3125 6.9375 C-11.72372368 8.90285717 -11.72372368 8.90285717 -11.5078125 12.6328125 C-11.494509 14.10950108 -11.47064835 15.58612358 -11.4375 17.0625 C-11.42847656 17.81660156 -11.41945313 18.57070312 -11.41015625 19.34765625 C-11.3865687 21.21107254 -11.35069719 23.07432593 -11.3125 24.9375 C-8.98395537 26.13588209 -8.98395537 26.13588209 -6.3125 26.9375 C-5.3225 26.2775 -4.3325 25.6175 -3.3125 24.9375 C-3.03636432 22.18208159 -2.93992375 19.68658898 -3 16.9375 C-2.99677734 16.20015625 -2.99355469 15.4628125 -2.99023438 14.703125 C-2.89331038 10.35273711 -2.89331038 10.35273711 -5.3125 6.9375 C-6.6325 6.9375 -7.9525 6.9375 -9.3125 6.9375 Z " fill="#21386A" transform="translate(528.3125,197.0625)"/>
<path d="M0 0 C2.17089844 1.57128906 2.17089844 1.57128906 4 4 C4.45410156 7.29980469 4.45410156 7.29980469 4.390625 11.171875 C4.38496521 11.8542926 4.37930542 12.53671021 4.37347412 13.23980713 C4.35115636 15.41059762 4.30097508 17.57971206 4.25 19.75 C4.22992876 21.2252365 4.21167907 22.70049899 4.1953125 24.17578125 C4.1513088 27.78439501 4.08231583 31.39203381 4 35 C1.36 35 -1.28 35 -4 35 C-4.33 25.76 -4.66 16.52 -5 7 C-6.65 7.66 -8.3 8.32 -10 9 C-10.33 17.58 -10.66 26.16 -11 35 C-13.97 35 -16.94 35 -20 35 C-20 23.78 -20 12.56 -20 1 C-16 1 -12 1 -8 1 C-5.15916359 -0.42041821 -3.14522722 -0.31452272 0 0 Z " fill="#21386A" transform="translate(321,196)"/>
<path d="M0 0 C2.17089844 1.05981445 2.17089844 1.05981445 4 3 C4.35711867 5.57797437 4.46813593 7.72314113 4.390625 10.29296875 C4.38496521 10.99899734 4.37930542 11.70502594 4.37347412 12.43244934 C4.35110411 14.68482626 4.30091199 16.93560503 4.25 19.1875 C4.22993556 20.71547179 4.21168468 22.24346856 4.1953125 23.77148438 C4.15123802 27.51493756 4.08221074 31.25719795 4 35 C1.36 35 -1.28 35 -4 35 C-4.33 26.09 -4.66 17.18 -5 8 C-8.74275212 8.57125354 -8.74275212 8.57125354 -10 10 C-10.15786308 11.85174706 -10.25107356 13.7090911 -10.31640625 15.56640625 C-10.35830078 16.69111328 -10.40019531 17.81582031 -10.44335938 18.97460938 C-10.48267578 20.15861328 -10.52199219 21.34261719 -10.5625 22.5625 C-10.60568359 23.75037109 -10.64886719 24.93824219 -10.69335938 26.16210938 C-10.79983546 29.10794784 -10.90184841 32.0538743 -11 35 C-13.64 35 -16.28 35 -19 35 C-19 23.78 -19 12.56 -19 1 C-15.33333333 1 -11.66666667 1 -8 1 C-5.19084526 -0.40457737 -3.11189466 -0.24895157 0 0 Z " fill="#21386A" transform="translate(642,196)"/>
<path d="M0 0 C3.56233577 2.74596716 5.11186045 4.66106823 6 9 C0.71502591 10.76165803 0.71502591 10.76165803 -2 11 C-4.5 9.125 -4.5 9.125 -6 7 C-6.99 7.495 -6.99 7.495 -8 8 C-8 8.66 -8 9.32 -8 10 C-6.0842321 11.21566312 -4.11553193 12.34856194 -2.125 13.4375 C3.77915633 16.66873449 3.77915633 16.66873449 6 20 C6.67226891 26.94677871 6.67226891 26.94677871 4.125 30.9375 C0.26690022 34.68212625 -3.10915762 34.32980374 -8.296875 34.2890625 C-11.91444377 33.90221266 -13.60878629 32.69975742 -16 30 C-18 27 -18 27 -17.625 24.8125 C-17.41875 24.214375 -17.2125 23.61625 -17 23 C-13.535 22.505 -13.535 22.505 -10 22 C-9.34 23.32 -8.68 24.64 -8 26 C-6.35 26 -4.7 26 -3 26 C-3 24.68 -3 23.36 -3 22 C-3.86625 21.7525 -4.7325 21.505 -5.625 21.25 C-10.53461211 19.43162514 -14.07561985 17.38657022 -17 13 C-17.78993519 6.00343119 -17.78993519 6.00343119 -14.6875 2.0625 C-9.90748155 -1.60588625 -5.65193358 -1.45760392 0 0 Z " fill="#21386A" transform="translate(430,197)"/>
<path d="M0 0 C2.97 0 5.94 0 9 0 C9 11.88 9 23.76 9 36 C13.62 36 18.24 36 23 36 C23 38.97 23 41.94 23 45 C15.41 45 7.82 45 0 45 C0 30.15 0 15.3 0 0 Z " fill="#21386A" transform="translate(569,186)"/>
<path d="M0 0 C2.97 0 5.94 0 9 0 C10.32 5.28 11.64 10.56 13 16 C14.27512613 11.10949636 14.27512613 11.10949636 15.54272461 6.21704102 C16.88888889 1.11111111 16.88888889 1.11111111 18 0 C20.67058851 -0.14115161 23.32432238 -0.04247107 26 0 C25.36213479 7.23799825 23.49643961 13.96599702 21.5 20.9375 C21.01853516 22.65936523 21.01853516 22.65936523 20.52734375 24.41601562 C18.13669617 32.86330383 18.13669617 32.86330383 17 34 C14.32941149 34.14115161 11.67567762 34.04247107 9 34 C0 5.93032787 0 5.93032787 0 0 Z " fill="#21386A" transform="translate(340,197)"/>
<path d="M0 0 C0 2.31 0 4.62 0 7 C-1.32 7.33 -2.64 7.66 -4 8 C-4.33 9.32 -4.66 10.64 -5 12 C-3.35 12 -1.7 12 0 12 C0 14.31 0 16.62 0 19 C-1.65 19 -3.3 19 -5 19 C-5 27.58 -5 36.16 -5 45 C-7.97 45 -10.94 45 -14 45 C-14 36.42 -14 27.84 -14 19 C-14.99 19 -15.98 19 -17 19 C-17 16.69 -17 14.38 -17 12 C-16.01 12 -15.02 12 -14 12 C-13.96261719 11.38511719 -13.92523437 10.77023438 -13.88671875 10.13671875 C-13.78810547 8.92435547 -13.78810547 8.92435547 -13.6875 7.6875 C-13.62949219 6.88699219 -13.57148437 6.08648437 -13.51171875 5.26171875 C-12.91063221 2.60500801 -12.10358994 1.67973227 -10 0 C-6.52615148 -1.43745456 -3.60921341 -0.7382482 0 0 Z " fill="#21386A" transform="translate(552,186)"/>
<path d="M0 0 C2.64 0 5.28 0 8 0 C8 2.97 8 5.94 8 9 C9.65 9 11.3 9 13 9 C13 11.31 13 13.62 13 16 C11.35 16 9.7 16 8 16 C8.33 21.61 8.66 27.22 9 33 C10.32 33.66 11.64 34.32 13 35 C13 37.31 13 39.62 13 42 C11.39667209 42.08121924 9.79215974 42.13929134 8.1875 42.1875 C6.84751953 42.23970703 6.84751953 42.23970703 5.48046875 42.29296875 C3 42 3 42 1.36328125 40.81445312 C-0.4927991 38.34411122 -0.34381129 36.74328099 -0.29296875 33.67578125 C-0.2784668 32.13374023 -0.2784668 32.13374023 -0.26367188 30.56054688 C-0.23853516 29.48869141 -0.21339844 28.41683594 -0.1875 27.3125 C-0.16719727 25.68731445 -0.16719727 25.68731445 -0.14648438 24.02929688 C-0.11110643 21.35236595 -0.06174189 18.67643162 0 16 C-0.99 16 -1.98 16 -3 16 C-3 13.69 -3 11.38 -3 9 C-2.01 9 -1.02 9 0 9 C0 6.03 0 3.06 0 0 Z " fill="#21386A" transform="translate(453,189)"/>
<path d="M0 0 C0 2.97 0 5.94 0 9 C-2.31 9 -4.62 9 -7 9 C-7.33 17.58 -7.66 26.16 -8 35 C-10.64 35 -13.28 35 -16 35 C-16 23.78 -16 12.56 -16 1 C-12.66666667 1 -9.33333333 1 -6 1 C-4 0 -4 0 0 0 Z " fill="#21386A" transform="translate(411,196)"/>
<path d="M0 0 C2.97 0 5.94 0 9 0 C9 11.22 9 22.44 9 34 C6.03 34 3.06 34 0 34 C0 22.78 0 11.56 0 0 Z " fill="#21386A" transform="translate(438,197)"/>
<path d="M0 0 C2.64 0 5.28 0 8 0 C8 11.22 8 22.44 8 34 C5.36 34 2.72 34 0 34 C0 22.78 0 11.56 0 0 Z " fill="#21386A" transform="translate(329,197)"/>
<path d="M0 0 C2.97 0 5.94 0 9 0 C9 2.64 9 5.28 9 8 C6.03 8 3.06 8 0 8 C0 5.36 0 2.72 0 0 Z " fill="#21386A" transform="translate(438,184)"/>
<path d="M0 0 C2.64 0 5.28 0 8 0 C8 2.64 8 5.28 8 8 C5.36 8 2.72 8 0 8 C0 5.36 0 2.72 0 0 Z " fill="#21386A" transform="translate(329,184)"/>
</svg>
